<svg xmlns="http://www.w3.org/2000/svg" viewBox="0 0 128 128" role="img" aria-labelledby="title desc">
  <title id="title">Raseed logo</title>
  <desc id="desc">Arabic letter reh inside a receipt-shaped mark.</desc>
  <defs>
    <linearGradient id="mark" x1="22" x2="108" y1="18" y2="112" gradientUnits="userSpaceOnUse">
      <stop stop-color="#14b8a6"/>
      <stop offset="1" stop-color="#0f766e"/>
    </linearGradient>
  </defs>
  <path fill="#0f172a" d="M34 18h60c8.8 0 16 7.2 16 16v74l-11-6.5-11 6.5-11-6.5-11 6.5-11-6.5-11 6.5-11-6.5-11 6.5V30c0-6.6 5.4-12 12-12Z" opacity=".14"/>
  <path fill="url(#mark)" d="M28 14h60c8.8 0 16 7.2 16 16v76l-10-6-10 6-10-6-10 6-10-6-10 6-10-6-10 6V26c0-6.6 5.4-12 12-12Z"/>
  <path fill="#fff" d="M42 35h45a5 5 0 0 1 0 10H42a5 5 0 0 1 0-10Zm0 18h34a5 5 0 0 1 0 10H42a5 5 0 0 1 0-10Z" opacity=".72"/>
  <path fill="#fff" d="M83.4 86.8c-3.7 3.6-9 5.4-16 5.4H49.1c-3.2 0-5.8-2.6-5.8-5.8s2.6-5.8 5.8-5.8h18.5c3.4 0 5.8-.7 7.3-2 1.5-1.4 2.3-3.4 2.3-6v-3.1H51.4c-3.2 0-5.8-2.6-5.8-5.8s2.6-5.8 5.8-5.8H89v14.8c0 5.8-1.9 10.5-5.6 14.1Z"/>
  <circle cx="92" cy="42" r="8" fill="#f59e0b"/>
</svg>
